<svg xmlns="http://www.w3.org/2000/svg" xmlns:xlink="http://www.w3.org/1999/xlink" version="1.1" preserveAspectRatio="none" x="0px" y="0px" viewBox="0 0 100 125"><defs><g id="a"><path fill="#000000" stroke="none" d=" M 83.95 40.8 L 83.95 40.8 Q 83.081640625 40.575 82.25 40.7 80.3388671875 40.837109375 79.65 41.75 L 79.65 41.75 Q 79.1029296875 42.437109375 79.25 43 79.203125 44.0099609375 78.45 44.5 78.451171875 44.54921875 78.4 44.55 78.1248046875 44.8080078125 77.8 44.85 L 77.75 44.85 Q 76.6232421875 44.9087890625 76.15 44.3 L 75.9 43.4 Q 75.67265625 41.117578125 74.1 40.45 73.9912109375 40.415625 73.85 40.4 L 72.65 40.25 Q 72.5990234375 40.2453125 72.55 40.25 69.9041015625 40.444140625 69.25 42.4 L 69.25 42.35 Q 68.8974609375 43.265234375 69.05 44.1 68.9970703125 44.684765625 68.2 44.95 L 68.25 44.9 Q 67.707421875 45.0810546875 67.2 45.1 66.0611328125 44.9673828125 65.65 44.15 L 65.55 43.05 65.55 43 Q 65.5326171875 41.010546875 64 40.45 63.4080078125 40.1587890625 62.7 40.2 L 62.6 32.6 Q 64.0234375 32.1810546875 65.2 30.9 65.373828125 30.7193359375 65.4 30.45 65.416796875 30.2208984375 65.25 30 63.36484375 26.9267578125 60.75 23.3 55.4578125 16.04921875 51.55 12.1 51.3572265625 11.9009765625 51.05 11.9 50.742578125 11.9009765625 50.5 12.1 46.6421875 16.04921875 41.35 23.3 38.73515625 26.9267578125 36.8 30 36.683203125 30.2208984375 36.7 30.45 36.726171875 30.7193359375 36.9 30.9 38.0767578125 32.181640625 39.5 32.6 L 39.35 40.2 Q 38.6923828125 40.15859375 38.05 40.45 36.6001953125 40.9986328125 36.55 42.9 L 36.4 44.2 Q 36.0212890625 44.9693359375 34.9 45.1 34.392578125 45.0810546875 33.85 44.9 L 33.85 44.95 Q 33.1150390625 44.6888671875 33.05 44.1 L 33.05 44.1 Q 33.201171875 43.2615234375 32.85 42.35 L 32.85 42.4 Q 32.195703125 40.444140625 29.55 40.25 29.50078125 40.2453125 29.45 40.25 L 28.25 40.4 Q 28.12109375 40.415625 28 40.45 26.440625 41.1173828125 26.2 43.4 L 25.95 44.3 Q 25.47734375 44.9087890625 24.3 44.85 L 24.3 44.85 Q 23.975 44.8080078125 23.65 44.55 23.648828125 44.54921875 23.6 44.5 22.896875 44.0099609375 22.85 43 22.9970703125 42.437109375 22.45 41.75 L 22.4 41.75 Q 21.7611328125 40.837109375 19.8 40.7 19.0181640625 40.575 18.15 40.8 L 18.1 40.8 Q 16.254296875 41.34140625 16.25 43.55 L 16.1 51.05 Q 16.0611328125 52.8732421875 17.2 53.65 18.013671875 54.28046875 19.45 54.3 L 17.45 84.3 Q 17.444140625 84.4134765625 17.45 84.5 L 17.55 84.9 Q 17.597265625 85.02890625 17.65 85.1 18.01640625 85.8515625 19.45 86.3 L 19.45 86.3 Q 23.0126953125 87.5099609375 33.05 87.15 33.2970703125 87.648828125 33.85 88.05 35.7185546875 89.5724609375 42.3 90.2 42.5494140625 90.2150390625 42.75 90.1 42.946875 89.996484375 43.05 89.8 43.1650390625 89.5994140625 43.15 89.35 42.7029296875 84.9875 43.5 80.6 L 43.55 80.55 Q 45.070703125 72.28125 51.35 72.3 57.0326171875 72.301953125 58.55 80.55 L 58.55 80.6 Q 59.3970703125 84.9875 58.95 89.35 58.9349609375 89.5994140625 59.05 89.8 59.1533203125 89.996484375 59.35 90.1 59.5505859375 90.2150390625 59.75 90.2 66.3814453125 89.5724609375 68.25 88.05 68.8025390625 87.64921875 69 87.15 79.0857421875 87.510546875 82.6 86.3 L 82.6 86.3 Q 84.0833984375 85.8515625 84.45 85.1 84.502734375 85.02890625 84.5 84.9 L 84.6 84.5 Q 84.6556640625 84.4126953125 84.65 84.3 L 82.65 54.3 Q 84.086328125 54.2802734375 84.85 53.65 86.0306640625 52.87890625 86 51.1 L 85.85 43.6 Q 85.855859375 41.3443359375 83.95 40.8 M 83.55 42.25 L 83.5 42.25 Q 84.3439453125 42.5544921875 84.35 43.6 L 84.5 51.1 Q 84.5111328125 52.0275390625 83.95 52.45 83.291015625 52.89609375 81.9 52.8 L 81.9 52.8 Q 81.8490234375 52.7958984375 81.8 52.8 81.667578125 52.8 81.5 52.8 L 81.45 52.8 Q 68.4185546875 53.5890625 62.5 52.65 L 62.5 52.65 Q 61.515234375 52.5015625 61.05 52 60.726953125 51.5490234375 60.85 50.75 60.8541015625 50.698046875 60.85 50.65 L 60.85 42.9 Q 60.8521484375 42.8640625 60.85 42.8 60.818359375 42.562890625 60.9 42.3 L 60.95 42.3 Q 61.217578125 41.7841796875 62 41.75 62.1873046875 41.746875 62.3 41.65 62.5337890625 41.793359375 62.75 41.75 63.0888671875 41.690625 63.35 41.8 63.4115234375 41.8388671875 63.45 41.85 64.053125 42.13203125 64.05 43.05 L 64.05 43.1 64.2 44.4 Q 64.2126953125 44.5 64.25 44.6 64.79453125 46.3390625 67 46.6 67.05078125 46.6025390625 67.1 46.6 67.8462890625 46.603515625 68.65 46.35 L 68.65 46.35 Q 70.6052734375 45.7142578125 70.55 44.1 70.545703125 44.0244140625 70.5 43.95 70.433984375 43.4552734375 70.65 42.9 L 70.65 42.9 Q 71.085546875 41.8771484375 72.55 41.75 L 73.6 41.85 Q 74.30390625 42.34453125 74.4 43.65 74.4041015625 43.7380859375 74.4 43.8 L 74.7 44.85 Q 74.750390625 44.966015625 74.8 45.05 75.622265625 46.481640625 77.9 46.35 L 77.9 46.35 Q 78.686328125 46.2830078125 79.35 45.7 L 79.3 45.75 Q 80.751171875 44.822265625 80.75 42.9 80.755078125 42.8392578125 80.75 42.75 80.7890625 42.7876953125 80.8 42.75 L 80.85 42.7 Q 81.2763671875 42.2787109375 82.45 42.2 82.4861328125 42.2013671875 82.5 42.2 83.0181640625 42.1248046875 83.55 42.25 M 83.15 84.3 L 83.15 84.35 83.1 84.4 Q 82.875 84.6609375 82.15 84.85 L 82.15 84.9 Q 78.7521484375 86.01015625 69.05 85.65 L 69.05 62.4 Q 69.1642578125 59.2833984375 66.1 58.9 66.03671875 58.8951171875 65.95 58.9 64.151953125 58.959765625 63.25 59 L 63.15 54.25 Q 69.123046875 55.040625 81.15 54.3 L 83.15 84.3 M 51.05 13.7 Q 54.6958984375 17.5365234375 59.55 24.2 61.9171875 27.471875 63.7 30.25 62.795703125 31.075 61.7 31.25 61.614453125 31.2681640625 61.5 31.3 58.5552734375 31.905859375 51 31.95 43.5328125 31.905859375 40.55 31.3 40.4814453125 31.2673828125 40.35 31.25 39.3041015625 31.075 38.4 30.25 40.1828125 27.471875 42.55 24.2 47.4041015625 17.5365234375 51.05 13.7 M 41.25 42.8 Q 41.24765625 42.8640625 41.25 42.9 L 41.25 50.65 Q 41.2458984375 50.698046875 41.25 50.75 41.373046875 51.5490234375 41 52 40.5845703125 52.5015625 39.6 52.65 L 39.55 52.65 Q 33.6814453125 53.5890625 20.65 52.8 L 20.6 52.8 Q 20.4541015625 52.8 20.3 52.8 L 20.3 52.8 Q 20.254296875 52.7955078125 20.2 52.8 L 20.15 52.8 Q 18.805859375 52.89453125 18.1 52.45 17.5888671875 52.0275390625 17.6 51.1 L 17.75 43.6 Q 17.755859375 42.5544921875 18.55 42.25 L 18.55 42.25 Q 19.081640625 42.1248046875 19.55 42.2 19.6138671875 42.2013671875 19.65 42.2 20.8234375 42.2787109375 21.25 42.7 L 21.25 42.75 Q 21.3109375 42.7876953125 21.35 42.75 21.344921875 42.8392578125 21.35 42.9 21.3486328125 44.822265625 22.75 45.75 L 22.7 45.7 Q 23.4134765625 46.2830078125 24.15 46.35 L 24.2 46.35 Q 26.477734375 46.481640625 27.3 45.05 27.3494140625 44.966015625 27.35 44.85 L 27.65 43.8 Q 27.6958984375 43.7380859375 27.7 43.65 27.8083984375 42.3392578125 28.55 41.85 L 29.5 41.75 Q 31.0142578125 41.87734375 31.45 42.9 L 31.45 42.9 Q 31.666015625 43.4552734375 31.55 43.95 31.5541015625 44.0244140625 31.55 44.1 31.4947265625 45.7142578125 33.4 46.35 L 33.45 46.35 Q 34.253515625 46.603515625 35 46.6 35.0490234375 46.6025390625 35.1 46.6 37.30546875 46.3390625 37.85 44.6 37.880859375 44.5373046875 37.9 44.45 L 38.05 43.15 Q 38.054296875 43.11171875 38.05 43.05 38.046875 42.13203125 38.65 41.85 38.68828125 41.8388671875 38.7 41.8 39.0111328125 41.690625 39.3 41.75 39.5669921875 41.7935546875 39.75 41.65 39.913671875 41.746484375 40.05 41.75 40.8822265625 41.7841796875 41.15 42.3 L 41.15 42.3 Q 41.281640625 42.562890625 41.25 42.8 M 42.5 41.7 L 42.55 41.7 Q 42.1310546875 40.6068359375 40.85 40.3 L 40.95 32.9 Q 44.1431640625 33.402734375 51 33.45 57.945703125 33.402734375 61.1 32.9 L 61.25 40.3 Q 59.9689453125 40.606640625 59.55 41.7 L 59.55 41.7 Q 59.281640625 42.337109375 59.35 42.95 L 59.35 50.55 Q 59.1228515625 52.1013671875 59.9 53 60.4892578125 53.7150390625 61.65 54 L 61.75 59.15 Q 60.390234375 59.4423828125 59.85 60.5 L 59.9 60.45 Q 59.4080078125 61.3166015625 59.6 62.3 L 59.6 62.2 Q 59.7109375 63.3265625 58.85 63.85 L 58.85 63.85 Q 58.3740234375 64.151953125 57.9 64.2 56.58125 64.1767578125 56.2 63.1 L 56.15 61.55 Q 56.204296875 59.45859375 53.5 59.25 L 53.45 59.25 Q 49.5974609375 59.1462890625 48.55 59.25 45.895703125 59.468359375 45.95 61.55 L 45.9 63.1 Q 45.5197265625 64.1765625 44.2 64.2 43.7259765625 64.151953125 43.25 63.85 L 43.2 63.85 Q 42.3888671875 63.3265625 42.5 62.2 L 42.45 62.3 Q 42.6888671875 61.3171875 42.2 60.45 L 42.2 60.5 Q 41.7099609375 59.442578125 40.35 59.15 L 40.45 54 Q 41.6107421875 53.7146484375 42.15 53 42.9771484375 52.1013671875 42.75 50.55 L 42.75 42.95 Q 42.818359375 42.337109375 42.5 41.7 M 38.95 54.25 L 38.85 59 Q 37.9501953125 58.959765625 36.1 58.9 36.06328125 58.8951171875 36 58.9 32.935546875 59.2833984375 33.05 62.4 L 33.05 85.65 Q 23.34765625 86.01015625 19.9 84.9 L 19.9 84.85 Q 19.2255859375 84.6611328125 18.95 84.4 L 18.95 84.35 18.95 84.3 20.95 54.3 Q 32.9798828125 55.040625 38.95 54.25 M 36.2 60.4 Q 38.970703125 60.4986328125 39.5 60.55 L 39.6 60.55 Q 40.526953125 60.6318359375 40.85 61.2 L 40.9 61.2 Q 41.1111328125 61.5830078125 41 62 41.0099609375 62.0392578125 41 62.05 40.8109375 64.1734375 42.45 65.15 L 42.45 65.15 Q 43.273828125 65.6478515625 44.1 65.7 L 44.15 65.7 Q 46.7494140625 65.7037109375 47.35 63.5 47.3978515625 63.43828125 47.4 63.35 L 47.45 61.6 Q 47.529296875 60.8392578125 48.7 60.75 L 48.7 60.75 Q 49.6990234375 60.6541015625 53.4 60.75 54.5705078125 60.8392578125 54.65 61.6 L 54.7 63.35 Q 54.7021484375 63.43828125 54.7 63.5 55.350390625 65.7037109375 57.95 65.7 L 58 65.7 Q 58.826171875 65.6478515625 59.65 65.15 L 59.6 65.15 Q 61.2888671875 64.1734375 61.1 62.05 61.0900390625 62.0392578125 61.05 62 60.9919921875 61.583203125 61.2 61.2 L 61.2 61.2 Q 61.5732421875 60.631640625 62.5 60.55 62.537109375 60.5533203125 62.55 60.55 L 62.6 60.55 Q 63.131640625 60.4986328125 65.9 60.4 67.6232421875 60.61484375 67.55 62.35 L 67.55 86.2 67.6 86.35 67.6 86.4 Q 67.6 86.4873046875 67.6 86.55 67.5314453125 86.716796875 67.35 86.85 65.7529296875 88.0287109375 60.5 88.6 60.815625 84.4533203125 60 80.3 L 60.05 80.3 Q 58.2671875 70.596875 51.35 70.8 43.829296875 70.61796875 42.05 80.3 L 42.05 80.3 Q 41.284375 84.4533203125 41.55 88.6 36.3470703125 88.0287109375 34.75 86.85 34.5689453125 86.716796875 34.45 86.55 34.494921875 86.521875 34.5 86.45 34.5515625 86.3439453125 34.55 86.2 L 34.55 62.35 Q 34.4765625 60.61484375 36.2 60.4 M 26.6 63.15 Q 26.5140625 63.1388671875 26.4 63.15 22.2998046875 63.6791015625 22.7 70.5 22.7189453125 70.799609375 22.95 71 23.1740234375 71.2107421875 23.45 71.2 L 29.9 70.95 Q 30.2126953125 70.9392578125 30.4 70.75 30.624609375 70.5546875 30.65 70.25 30.8076171875 68.651953125 30.4 66.95 29.5859375 63.3322265625 26.6 63.15 M 26.6 64.65 Q 28.4296875 64.9373046875 28.95 67.3 29.2177734375 68.4142578125 29.2 69.45 L 24.15 69.65 Q 24.1017578125 65.2328125 26.6 64.65 M 50.6 41.35 Q 50.5140625 41.3388671875 50.4 41.35 46.2998046875 41.8791015625 46.7 48.7 46.7189453125 48.999609375 46.95 49.2 47.1740234375 49.4107421875 47.45 49.4 L 53.9 49.15 Q 54.2126953125 49.1392578125 54.4 48.95 54.624609375 48.7546875 54.65 48.45 54.8076171875 46.851953125 54.4 45.15 53.5859375 41.5322265625 50.6 41.35 M 48.15 47.85 Q 48.1017578125 43.4328125 50.6 42.85 52.4296875 43.1373046875 52.95 45.5 53.2177734375 46.6142578125 53.2 47.65 L 48.15 47.85 M 41.25 42.9 Q 41.24765625 42.8640625 41.25 42.8 41.281640625 42.562890625 41.15 42.3 L 41.15 42.3 Q 40.8822265625 41.7841796875 40.05 41.75 39.913671875 41.746484375 39.75 41.65 39.5669921875 41.7935546875 39.3 41.75 39.0111328125 41.690625 38.7 41.8 38.68828125 41.8388671875 38.65 41.85 38.046875 42.13203125 38.05 43.05 38.054296875 43.11171875 38.05 43.15 L 37.9 44.45 Q 37.880859375 44.5373046875 37.85 44.6 37.30546875 46.3390625 35.1 46.6 35.0490234375 46.6025390625 35 46.6 34.253515625 46.603515625 33.45 46.35 L 33.4 46.35 Q 31.4947265625 45.7142578125 31.55 44.1 31.5541015625 44.0244140625 31.55 43.95 31.666015625 43.4552734375 31.45 42.9 L 31.45 42.9 Q 31.0142578125 41.87734375 29.5 41.75 L 28.55 41.85 Q 27.8083984375 42.3392578125 27.7 43.65 27.6958984375 43.7380859375 27.65 43.8 L 27.35 44.85 Q 27.3494140625 44.966015625 27.3 45.05 26.477734375 46.481640625 24.2 46.35 L 24.15 46.35 Q 23.4134765625 46.2830078125 22.7 45.7 L 22.75 45.75 Q 21.3486328125 44.822265625 21.35 42.9 21.344921875 42.8392578125 21.35 42.75 21.3109375 42.7876953125 21.25 42.75 L 21.25 42.7 Q 20.8234375 42.2787109375 19.65 42.2 19.6138671875 42.2013671875 19.55 42.2 19.081640625 42.1248046875 18.55 42.25 L 18.55 42.25 Q 17.755859375 42.5544921875 17.75 43.6 L 17.6 51.1 Q 17.5888671875 52.0275390625 18.1 52.45 18.805859375 52.89453125 20.15 52.8 L 20.2 52.8 Q 20.254296875 52.7955078125 20.3 52.8 L 20.3 52.8 Q 20.4541015625 52.8 20.6 52.8 L 20.65 52.8 Q 33.6814453125 53.5890625 39.55 52.65 L 39.6 52.65 Q 40.5845703125 52.5015625 41 52 41.373046875 51.5490234375 41.25 50.75 41.2458984375 50.698046875 41.25 50.65 L 41.25 42.9 M 59.55 24.2 Q 54.6958984375 17.5365234375 51.05 13.7 47.4041015625 17.5365234375 42.55 24.2 40.1828125 27.471875 38.4 30.25 39.3041015625 31.075 40.35 31.25 40.4814453125 31.2673828125 40.55 31.3 43.5328125 31.905859375 51 31.95 58.5552734375 31.905859375 61.5 31.3 61.614453125 31.2681640625 61.7 31.25 62.795703125 31.075 63.7 30.25 61.9171875 27.471875 59.55 24.2 M 75.5 63.15 Q 75.4140625 63.1388671875 75.3 63.15 71.1998046875 63.6791015625 71.6 70.5 71.6189453125 70.799609375 71.85 71 72.0740234375 71.2107421875 72.35 71.2 L 78.8 70.95 Q 79.1126953125 70.9392578125 79.3 70.75 79.524609375 70.5546875 79.55 70.25 79.7076171875 68.651953125 79.3 66.95 78.4859375 63.3322265625 75.5 63.15 M 75.5 64.65 Q 77.3296875 64.9373046875 77.85 67.3 78.1177734375 68.4142578125 78.1 69.45 L 73.05 69.65 Q 73.0017578125 65.2328125 75.5 64.65 M 83.5 42.25 L 83.55 42.25 Q 83.0181640625 42.1248046875 82.5 42.2 82.4861328125 42.2013671875 82.45 42.2 81.2763671875 42.2787109375 80.85 42.7 L 80.8 42.75 Q 80.7890625 42.7876953125 80.75 42.75 80.755078125 42.8392578125 80.75 42.9 80.751171875 44.822265625 79.3 45.75 L 79.35 45.7 Q 78.686328125 46.2830078125 77.9 46.35 L 77.9 46.35 Q 75.622265625 46.481640625 74.8 45.05 74.750390625 44.966015625 74.7 44.85 L 74.4 43.8 Q 74.4041015625 43.7380859375 74.4 43.65 74.30390625 42.34453125 73.6 41.85 L 72.55 41.75 Q 71.085546875 41.8771484375 70.65 42.9 L 70.65 42.9 Q 70.433984375 43.4552734375 70.5 43.95 70.545703125 44.0244140625 70.55 44.1 70.6052734375 45.7142578125 68.65 46.35 L 68.65 46.35 Q 67.8462890625 46.603515625 67.1 46.6 67.05078125 46.6025390625 67 46.6 64.79453125 46.3390625 64.25 44.6 64.2126953125 44.5 64.2 44.4 L 64.05 43.1 64.05 43.05 Q 64.053125 42.13203125 63.45 41.85 63.4115234375 41.8388671875 63.35 41.8 63.0888671875 41.690625 62.75 41.75 62.5337890625 41.793359375 62.3 41.65 62.1873046875 41.746875 62 41.75 61.217578125 41.7841796875 60.95 42.3 L 60.9 42.3 Q 60.818359375 42.562890625 60.85 42.8 60.8521484375 42.8640625 60.85 42.9 L 60.85 50.65 Q 60.8541015625 50.698046875 60.85 50.75 60.726953125 51.5490234375 61.05 52 61.515234375 52.5015625 62.5 52.65 L 62.5 52.65 Q 68.4185546875 53.5890625 81.45 52.8 L 81.5 52.8 Q 81.667578125 52.8 81.8 52.8 81.8490234375 52.7958984375 81.9 52.8 L 81.9 52.8 Q 83.291015625 52.89609375 83.95 52.45 84.5111328125 52.0275390625 84.5 51.1 L 84.35 43.6 Q 84.3439453125 42.5544921875 83.5 42.25 Z"/></g></defs><g transform="matrix( 1, 0, 0, 1, 0,0) "><use xlink:href="#a"/></g></svg>